<svg xmlns="http://www.w3.org/2000/svg" xmlns:xlink="http://www.w3.org/1999/xlink" version="1.1" id="Your_Icon" x="0px" y="0px" width="100px" height="100px" viewBox="0 0 100 100" enable-background="new 0 0 100 100" xml:space="preserve">
<path d="M50,0.5C22.662,0.5,0.5,22.661,0.5,50c0,27.337,22.162,49.5,49.5,49.5S99.5,77.337,99.5,50C99.5,22.661,77.338,0.5,50,0.5z   M90.346,45.539h-35.81V9.662c9.126,1.009,17.579,5.05,24.165,11.636C85.307,27.903,89.353,36.384,90.346,45.539z M21.299,21.298  c6.6-6.601,15.075-10.645,24.223-11.642v35.883H9.654C10.647,36.384,14.693,27.903,21.299,21.298z M9.64,54.333h35.882v36.012  c-9.148-0.998-17.623-5.043-24.223-11.645C14.664,72.066,10.611,63.537,9.64,54.333z M78.701,78.7  c-6.586,6.588-15.039,10.629-24.165,11.637V54.333H90.36C89.389,63.537,85.336,72.066,78.701,78.7z"/>
</svg>