<svg xmlns="http://www.w3.org/2000/svg" xmlns:xlink="http://www.w3.org/1999/xlink" version="1.1" id="Your_Icon" x="0px" y="0px" width="100px" height="100px" viewBox="0 0 100 100" enable-background="new 0 0 100 100" xml:space="preserve">
<g>
	<g>
		<path fill="#000000" d="M50,59.505c-5.241,0-9.505-4.264-9.505-9.505s4.264-9.505,9.505-9.505c5.241,0,9.505,4.264,9.505,9.505    S55.241,59.505,50,59.505z M50,46.217c-2.086,0-3.783,1.697-3.783,3.783s1.697,3.783,3.783,3.783c2.086,0,3.783-1.697,3.783-3.783    S52.086,46.217,50,46.217z"/>
	</g>
</g>
<g>
	<g>
		<g>
			<g>
				<path fill="#000000" d="M37.833,41.024c-0.732,0-1.464-0.279-2.023-0.838l-21-21c-1.117-1.117-1.117-2.929,0-4.046      c1.117-1.117,2.929-1.117,4.046,0l21,20.999c1.117,1.118,1.117,2.929,0,4.046C39.298,40.745,38.566,41.024,37.833,41.024z"/>
			</g>
		</g>
		<g>
			<g>
				<path fill="#000000" d="M83.165,86.356c-0.732,0-1.464-0.279-2.023-0.838L60.144,64.52c-1.117-1.118-1.117-2.929,0-4.046      c1.117-1.117,2.929-1.117,4.046,0l20.998,20.998c1.117,1.117,1.117,2.929,0,4.046C84.629,86.077,83.897,86.356,83.165,86.356z"/>
			</g>
		</g>
	</g>
	<g>
		<g>
			<g>
				<g>
					<path fill="#000000" d="M50,35.654c-1.58,0-2.861-1.281-2.861-2.861V2.861C47.139,1.281,48.42,0,50,0       c1.58,0,2.861,1.281,2.861,2.861v29.932C52.861,34.373,51.58,35.654,50,35.654z"/>
				</g>
			</g>
			<g>
				<g>
					<path fill="#000000" d="M50,100c-1.58,0-2.861-1.281-2.861-2.861V67.206c0-1.58,1.281-2.861,2.861-2.861       c1.58,0,2.861,1.281,2.861,2.861v29.932C52.861,98.719,51.58,100,50,100z"/>
				</g>
			</g>
		</g>
		<g>
			<g>
				<g>
					<path fill="#000000" d="M32.794,52.861H2.861C1.281,52.861,0,51.58,0,50s1.281-2.861,2.861-2.861h29.933       c1.58,0,2.861,1.281,2.861,2.861S34.374,52.861,32.794,52.861z"/>
				</g>
			</g>
			<g>
				<g>
					<path fill="#000000" d="M97.139,52.861H67.207c-1.58,0-2.861-1.281-2.861-2.861s1.281-2.861,2.861-2.861h29.932       c1.58,0,2.861,1.281,2.861,2.861S98.719,52.861,97.139,52.861z"/>
				</g>
			</g>
		</g>
		<g>
			<g>
				<g>
					<path fill="#000000" d="M16.833,86.356c-0.725,0-1.45-0.274-2.007-0.822c-1.126-1.109-1.14-2.92-0.032-4.046l21-21.328       c1.109-1.126,2.92-1.14,4.046-0.031c1.126,1.109,1.14,2.92,0.031,4.046l-21,21.328C18.312,86.071,17.573,86.356,16.833,86.356z       "/>
				</g>
			</g>
			<g>
				<g>
					<path fill="#000000" d="M62.167,40.694c-0.732,0-1.464-0.279-2.023-0.838c-1.117-1.118-1.117-2.929,0-4.046l21.165-21.165       c1.117-1.117,2.929-1.117,4.046,0c1.117,1.117,1.117,2.929,0,4.046L64.19,39.856C63.631,40.415,62.899,40.694,62.167,40.694z"/>
				</g>
			</g>
		</g>
		<g>
			<g>
				<g>
					<path fill="#000000" d="M43.44,36.955c-1.121,0-2.185-0.663-2.643-1.763L29.38,7.73c-0.607-1.459,0.084-3.134,1.543-3.74       c1.459-0.606,3.134,0.084,3.74,1.543l11.418,27.461c0.606,1.459-0.085,3.134-1.543,3.74       C44.179,36.884,43.806,36.955,43.44,36.955z"/>
				</g>
			</g>
			<g>
				<g>
					<path fill="#000000" d="M67.979,96.45c-1.124,0-2.191-0.667-2.646-1.771L53.916,66.997c-0.602-1.461,0.093-3.133,1.554-3.736       c1.461-0.602,3.133,0.093,3.736,1.554l11.417,27.682c0.603,1.461-0.093,3.133-1.554,3.736       C68.712,96.38,68.343,96.45,67.979,96.45z"/>
				</g>
			</g>
		</g>
		<g>
			<g>
				<g>
					<path fill="#000000" d="M6.477,70.993c-1.119,0-2.181-0.66-2.64-1.756c-0.61-1.457,0.076-3.134,1.533-3.745l27.618-11.571       c1.458-0.61,3.134,0.076,3.744,1.533c0.611,1.457-0.076,3.134-1.533,3.744L7.581,70.77C7.22,70.921,6.845,70.993,6.477,70.993z       "/>
				</g>
			</g>
			<g>
				<g>
					<path fill="#000000" d="M65.907,46.301c-1.124,0-2.191-0.667-2.646-1.771c-0.602-1.461,0.093-3.133,1.554-3.736l27.682-11.417       c1.46-0.602,3.134,0.093,3.736,1.554c0.603,1.461-0.093,3.133-1.554,3.736L66.997,46.084       C66.64,46.231,66.271,46.301,65.907,46.301z"/>
				</g>
			</g>
		</g>
		<g>
			<g>
				<g>
					<path fill="#000000" d="M34.112,46.253c-0.362,0-0.73-0.069-1.085-0.215L5.326,34.668c-1.462-0.6-2.16-2.271-1.561-3.733       c0.6-1.462,2.271-2.16,3.733-1.56L35.2,40.744c1.462,0.6,2.16,2.271,1.56,3.733C36.306,45.584,35.238,46.253,34.112,46.253z"/>
				</g>
			</g>
			<g>
				<g>
					<path fill="#000000" d="M93.587,70.993c-0.366,0-0.738-0.071-1.098-0.22L64.788,59.25c-1.459-0.607-2.15-2.282-1.543-3.741       c0.607-1.459,2.281-2.15,3.741-1.543l27.701,11.523c1.459,0.607,2.15,2.282,1.543,3.741       C95.772,70.33,94.708,70.993,93.587,70.993z"/>
				</g>
			</g>
		</g>
		<g>
			<g>
				<g>
					<path fill="#000000" d="M31.868,96.45c-0.366,0-0.738-0.071-1.098-0.22c-1.459-0.607-2.15-2.282-1.543-3.741L40.75,64.788       c0.607-1.459,2.281-2.15,3.741-1.543c1.459,0.607,2.15,2.282,1.543,3.741L34.51,94.687       C34.053,95.787,32.989,96.45,31.868,96.45z"/>
				</g>
			</g>
			<g>
				<g>
					<path fill="#000000" d="M56.607,36.975c-0.366,0-0.739-0.071-1.098-0.22c-1.459-0.607-2.15-2.282-1.543-3.741L64.63,7.38       c0.607-1.459,2.282-2.149,3.741-1.543c1.459,0.607,2.15,2.282,1.542,3.741L59.25,35.212       C58.793,36.311,57.728,36.975,56.607,36.975z"/>
				</g>
			</g>
		</g>
	</g>
</g>
</svg>