<svg xmlns="http://www.w3.org/2000/svg" xmlns:xlink="http://www.w3.org/1999/xlink" version="1.1" id="Your_Icon" x="0px" y="0px" width="100px" height="100px" viewBox="0 0 100 100" enable-background="new 0 0 100 100" xml:space="preserve">
<polygon points="70.86,55.452 64.496,49.088 54.5,59.085 54.5,44.998 45.5,44.998 45.5,59.084 35.505,49.088 29.141,55.452   39.137,65.448 25,65.448 25.001,74.448 39.137,74.448 29.141,84.444 35.505,90.808 45.5,80.812 45.5,100 54.5,100 54.5,80.812   64.496,90.808 70.859,84.444 60.864,74.448 75,74.448 75,65.449 60.864,65.448 "/>
<path d="M50,19c15.998,0,31.188,5.255,43.599,14.949l6.398-6.398C86.301,16.571,68.919,10,50,10S13.699,16.571,0.004,27.551  l6.397,6.398C18.812,24.255,34.003,19,50,19z"/>
<path d="M50,25.039c-20.109,0-38.084,9.139-49.999,23.489l6.394,6.394c1.257-1.557,2.601-3.058,4.035-4.492  C20.999,39.86,35.053,34.039,50,34.039c14.948,0,29.001,5.821,39.57,16.391c1.435,1.435,2.779,2.936,4.036,4.492L100,48.528  C88.084,34.179,70.11,25.039,50,25.039z"/>
</svg>