<svg xmlns="http://www.w3.org/2000/svg" xmlns:xlink="http://www.w3.org/1999/xlink" version="1.1" id="Your_Icon" x="0px" y="0px" width="100px" height="100px" viewBox="0 0 100 100" enable-background="new 0 0 100 100" xml:space="preserve">
<path fill="#000000" d="M96.447,57.303c-0.001-0.013-0.003-0.025-0.004-0.038c-0.005-0.058-0.01-0.116-0.017-0.173  c-0.003-0.022-0.007-0.043-0.011-0.064c-0.007-0.048-0.014-0.096-0.024-0.143c-0.005-0.026-0.012-0.051-0.018-0.077  c-0.01-0.042-0.019-0.085-0.03-0.127c-0.008-0.029-0.018-0.058-0.027-0.087c-0.011-0.037-0.022-0.075-0.034-0.112  c-0.011-0.031-0.023-0.061-0.035-0.092c-0.013-0.034-0.025-0.069-0.039-0.103c-0.013-0.031-0.028-0.061-0.041-0.091  c-0.015-0.033-0.029-0.066-0.045-0.098c-0.015-0.031-0.032-0.06-0.048-0.09c-0.017-0.031-0.032-0.063-0.05-0.093  c-0.017-0.03-0.036-0.058-0.054-0.088c-0.018-0.03-0.036-0.059-0.055-0.088c-0.019-0.029-0.04-0.056-0.06-0.084  c-0.02-0.028-0.039-0.057-0.061-0.084c-0.021-0.027-0.043-0.053-0.065-0.079c-0.022-0.027-0.044-0.055-0.067-0.082  c-0.022-0.025-0.046-0.049-0.069-0.074c-0.024-0.026-0.048-0.053-0.073-0.078c-0.024-0.024-0.05-0.047-0.074-0.07  c-0.026-0.024-0.052-0.05-0.078-0.073c-0.025-0.022-0.052-0.043-0.078-0.065c-0.028-0.023-0.056-0.047-0.084-0.069  c-0.027-0.021-0.055-0.04-0.083-0.06c-0.03-0.021-0.059-0.043-0.089-0.064c-0.029-0.019-0.059-0.037-0.088-0.055  c-0.028-0.018-0.055-0.036-0.084-0.053c-0.003-0.002-0.006-0.003-0.009-0.005c-0.003-0.002-0.006-0.004-0.009-0.005L91.33,52.73  V31.397c0-0.029-0.004-0.058-0.004-0.087c-0.002-0.066-0.004-0.133-0.01-0.198c-0.004-0.049-0.011-0.097-0.018-0.146  c-0.007-0.052-0.014-0.105-0.024-0.156c-0.01-0.057-0.024-0.113-0.037-0.169c-0.011-0.043-0.021-0.086-0.033-0.129  c-0.017-0.059-0.036-0.116-0.056-0.173c-0.014-0.04-0.028-0.08-0.044-0.12c-0.022-0.054-0.045-0.108-0.07-0.161  c-0.019-0.042-0.039-0.084-0.061-0.126c-0.024-0.047-0.05-0.093-0.076-0.138c-0.027-0.046-0.054-0.092-0.083-0.137  c-0.025-0.039-0.052-0.076-0.078-0.114c-0.034-0.048-0.069-0.095-0.106-0.142c-0.026-0.033-0.054-0.065-0.082-0.097  c-0.04-0.046-0.08-0.092-0.123-0.135c-0.031-0.032-0.063-0.062-0.095-0.092c-0.042-0.04-0.084-0.079-0.128-0.117  c-0.04-0.034-0.082-0.066-0.124-0.098c-0.039-0.03-0.077-0.06-0.118-0.088c-0.054-0.038-0.111-0.073-0.168-0.108  c-0.025-0.015-0.047-0.032-0.073-0.046L71.425,18.16v-4.564c0-0.071-0.003-0.142-0.007-0.213c-0.001-0.022-0.005-0.044-0.006-0.066  c-0.004-0.049-0.008-0.097-0.015-0.145c-0.004-0.028-0.01-0.056-0.014-0.085c-0.007-0.041-0.012-0.082-0.02-0.123  c-0.006-0.031-0.015-0.061-0.022-0.091c-0.009-0.038-0.017-0.076-0.027-0.113c-0.008-0.031-0.018-0.06-0.028-0.09  c-0.011-0.036-0.021-0.073-0.033-0.109c-0.01-0.03-0.023-0.06-0.034-0.089c-0.013-0.035-0.026-0.07-0.04-0.105  c-0.012-0.03-0.026-0.058-0.04-0.087c-0.015-0.034-0.03-0.068-0.046-0.101c-0.014-0.028-0.03-0.056-0.045-0.084  c-0.018-0.033-0.034-0.066-0.053-0.099c-0.016-0.027-0.033-0.054-0.05-0.08c-0.02-0.032-0.039-0.064-0.059-0.095  c-0.017-0.026-0.037-0.051-0.055-0.077c-0.022-0.031-0.043-0.062-0.066-0.092c-0.019-0.025-0.04-0.049-0.06-0.074  c-0.024-0.029-0.047-0.059-0.072-0.087c-0.021-0.024-0.044-0.047-0.066-0.071c-0.025-0.027-0.05-0.055-0.076-0.081  c-0.023-0.023-0.047-0.045-0.071-0.067c-0.027-0.025-0.054-0.052-0.081-0.076c-0.025-0.022-0.051-0.042-0.076-0.063  c-0.029-0.024-0.057-0.048-0.086-0.071c-0.026-0.02-0.054-0.039-0.082-0.059c-0.03-0.022-0.06-0.044-0.09-0.065  c-0.028-0.019-0.058-0.037-0.087-0.055c-0.028-0.018-0.056-0.036-0.085-0.053c-0.003-0.002-0.006-0.003-0.009-0.005  c-0.003-0.002-0.006-0.004-0.009-0.005L51.588,0.397c-0.984-0.563-2.192-0.562-3.175,0L30.187,10.813  c-0.004,0.002-0.007,0.004-0.011,0.007c-0.002,0.001-0.005,0.002-0.007,0.004c-0.024,0.014-0.046,0.029-0.069,0.043  c-0.035,0.021-0.07,0.042-0.104,0.065c-0.026,0.017-0.051,0.037-0.077,0.055c-0.032,0.023-0.064,0.045-0.095,0.068  c-0.026,0.02-0.051,0.042-0.077,0.063c-0.028,0.023-0.057,0.046-0.085,0.07c-0.026,0.023-0.051,0.048-0.077,0.072  c-0.025,0.024-0.051,0.047-0.076,0.072c-0.025,0.026-0.049,0.052-0.074,0.079c-0.023,0.024-0.046,0.048-0.068,0.073  c-0.025,0.028-0.048,0.058-0.071,0.087c-0.02,0.025-0.041,0.049-0.061,0.074c-0.023,0.03-0.045,0.062-0.067,0.093  c-0.018,0.025-0.037,0.05-0.054,0.076c-0.021,0.031-0.04,0.064-0.06,0.096c-0.017,0.027-0.034,0.053-0.05,0.08  c-0.018,0.032-0.035,0.065-0.052,0.098c-0.015,0.028-0.031,0.056-0.045,0.085c-0.016,0.033-0.031,0.067-0.046,0.1  c-0.014,0.03-0.028,0.059-0.04,0.089c-0.014,0.033-0.026,0.068-0.039,0.102c-0.012,0.031-0.024,0.061-0.035,0.093  c-0.011,0.033-0.021,0.068-0.031,0.101c-0.01,0.033-0.021,0.065-0.03,0.098c-0.009,0.034-0.016,0.068-0.024,0.102  c-0.008,0.034-0.017,0.067-0.024,0.101c-0.007,0.035-0.012,0.071-0.018,0.106c-0.006,0.034-0.012,0.067-0.017,0.101  c-0.005,0.039-0.008,0.078-0.012,0.117c-0.003,0.031-0.007,0.062-0.009,0.094c-0.003,0.051-0.004,0.103-0.005,0.154  c0,0.02-0.002,0.039-0.002,0.059v0v0v4.563L10.282,28.609c-0.026,0.015-0.05,0.033-0.076,0.049  c-0.055,0.034-0.111,0.068-0.164,0.105c-0.042,0.029-0.081,0.06-0.121,0.091C9.88,28.884,9.84,28.915,9.8,28.949  c-0.045,0.038-0.088,0.079-0.131,0.119c-0.031,0.03-0.062,0.059-0.093,0.09c-0.043,0.045-0.084,0.091-0.125,0.137  c-0.027,0.031-0.054,0.063-0.08,0.095c-0.037,0.047-0.073,0.095-0.107,0.143c-0.027,0.037-0.053,0.074-0.077,0.112  c-0.029,0.045-0.057,0.091-0.084,0.137c-0.026,0.045-0.052,0.091-0.076,0.137c-0.021,0.042-0.041,0.084-0.061,0.126  c-0.024,0.053-0.048,0.106-0.07,0.161c-0.016,0.04-0.03,0.08-0.044,0.12c-0.02,0.058-0.04,0.115-0.056,0.174  c-0.012,0.042-0.022,0.085-0.033,0.127c-0.014,0.057-0.027,0.113-0.038,0.17c-0.01,0.051-0.016,0.102-0.023,0.154  c-0.007,0.049-0.014,0.099-0.018,0.149c-0.006,0.065-0.008,0.129-0.01,0.194c-0.001,0.03-0.004,0.06-0.004,0.09v21.34l-3.513,2.008  c-0.002,0.001-0.004,0.003-0.007,0.004c-0.004,0.002-0.007,0.004-0.011,0.006c-0.035,0.02-0.068,0.042-0.102,0.064  c-0.023,0.014-0.046,0.028-0.069,0.043c-0.037,0.025-0.073,0.051-0.109,0.077c-0.021,0.016-0.043,0.03-0.064,0.046  c-0.035,0.027-0.069,0.056-0.104,0.085c-0.019,0.016-0.04,0.032-0.059,0.049c-0.033,0.029-0.065,0.06-0.097,0.091  c-0.019,0.018-0.038,0.035-0.055,0.052C4.45,55.282,4.42,55.315,4.39,55.348c-0.017,0.019-0.035,0.037-0.052,0.056  c-0.029,0.033-0.056,0.068-0.084,0.102c-0.016,0.02-0.033,0.039-0.048,0.059c-0.026,0.035-0.051,0.07-0.076,0.106  c-0.015,0.021-0.031,0.042-0.045,0.063c-0.024,0.036-0.046,0.073-0.068,0.109c-0.014,0.022-0.028,0.044-0.041,0.067  c-0.022,0.038-0.041,0.076-0.061,0.114c-0.012,0.023-0.025,0.045-0.037,0.069c-0.019,0.039-0.037,0.08-0.055,0.12  c-0.01,0.023-0.022,0.046-0.031,0.069c-0.017,0.04-0.031,0.08-0.046,0.121c-0.009,0.025-0.019,0.049-0.028,0.074  c-0.014,0.042-0.026,0.084-0.039,0.127c-0.007,0.024-0.016,0.048-0.022,0.073c-0.012,0.044-0.022,0.089-0.032,0.134  c-0.005,0.024-0.012,0.047-0.016,0.07c-0.01,0.047-0.017,0.095-0.024,0.143c-0.003,0.022-0.008,0.043-0.011,0.065  c-0.007,0.053-0.012,0.108-0.016,0.162c-0.001,0.016-0.004,0.032-0.005,0.049c-0.004,0.062-0.006,0.124-0.006,0.187  c0,0.009-0.001,0.018-0.001,0.027v0v0v20.943c0,1.147,0.615,2.207,1.61,2.776l18.226,10.428c0.492,0.282,1.04,0.422,1.589,0.422  c0.554,0,1.109-0.144,1.605-0.432c0.037-0.021,0.072-0.045,0.107-0.067l3.688-2.11l18.041,10.322  c0.501,0.287,1.047,0.423,1.586,0.423c0.64,0,1.269-0.193,1.8-0.554L69.615,89.47l3.826,2.189c0.492,0.282,1.04,0.422,1.589,0.422  c0.554,0,1.109-0.144,1.605-0.432c0.037-0.022,0.073-0.045,0.109-0.068l18.1-10.356c0.996-0.57,1.61-1.629,1.61-2.776V57.517  C96.454,57.445,96.452,57.374,96.447,57.303z M86.809,57.516l-11.781,6.732l-11.779-6.736l11.78-6.733L86.809,57.516z   M60.002,63.027l11.828,6.766v13.575l-11.828-6.767V63.027z M34.973,19.105l11.828,6.766v13.575l-11.828-6.767V19.105z   M53.199,25.868l11.828-6.76v13.565L53.199,39.44V25.868z M50,6.858l11.78,6.736l-11.781,6.732L38.22,13.591L50,6.858z   M28.169,83.361V69.79l11.828-6.76v13.564L28.169,83.361z M24.969,64.248L13.19,57.512l11.78-6.733l11.781,6.736L24.969,64.248z   M9.944,63.027l11.828,6.766v13.574L9.944,76.599V63.027z M49.99,93.327l-13.178-7.54l7.973-4.562c0.996-0.57,1.61-1.629,1.61-2.777  V57.517c0-0.072-0.002-0.143-0.007-0.213c-0.002-0.026-0.006-0.053-0.008-0.079c-0.004-0.044-0.007-0.088-0.013-0.132  c-0.004-0.031-0.01-0.061-0.015-0.092c-0.006-0.039-0.012-0.078-0.02-0.116c-0.006-0.03-0.014-0.059-0.021-0.089  c-0.009-0.038-0.017-0.077-0.027-0.115c-0.008-0.03-0.018-0.059-0.027-0.088c-0.011-0.037-0.022-0.075-0.034-0.112  c-0.01-0.029-0.022-0.057-0.032-0.086c-0.014-0.036-0.026-0.073-0.041-0.109c-0.011-0.027-0.024-0.054-0.037-0.081  c-0.016-0.036-0.032-0.073-0.049-0.108c-0.013-0.026-0.027-0.05-0.04-0.076c-0.019-0.036-0.037-0.072-0.058-0.107  c-0.014-0.024-0.029-0.047-0.043-0.07c-0.022-0.036-0.043-0.071-0.066-0.106c-0.015-0.022-0.031-0.043-0.046-0.064  c-0.025-0.035-0.049-0.07-0.075-0.104c-0.016-0.021-0.033-0.04-0.049-0.06c-0.027-0.034-0.054-0.068-0.083-0.101  c-0.017-0.019-0.035-0.037-0.052-0.056c-0.03-0.032-0.06-0.065-0.091-0.097c-0.018-0.018-0.037-0.035-0.055-0.052  c-0.032-0.031-0.064-0.062-0.098-0.092c-0.019-0.017-0.039-0.032-0.058-0.048c-0.035-0.029-0.069-0.058-0.104-0.085  c-0.021-0.016-0.042-0.03-0.064-0.046c-0.036-0.026-0.071-0.053-0.108-0.077c-0.023-0.015-0.047-0.029-0.07-0.044  c-0.034-0.021-0.066-0.043-0.101-0.063c-0.003-0.002-0.007-0.004-0.011-0.006c-0.002-0.001-0.005-0.003-0.007-0.004L26.558,44.318  c-0.984-0.563-2.192-0.563-3.175,0l-8.315,4.752V33.242l13.507-7.72v9.011c0,1.147,0.614,2.207,1.61,2.776l18.226,10.428  c0.492,0.282,1.041,0.422,1.589,0.422c0.554,0,1.109-0.144,1.605-0.432c0.038-0.022,0.075-0.046,0.112-0.07l18.098-10.354  c0.996-0.57,1.61-1.629,1.61-2.776v-8.999l13.507,7.724v15.819l-8.314-4.754c-0.984-0.563-2.192-0.563-3.175-0.001L55.216,54.734  c-0.004,0.002-0.007,0.004-0.011,0.007c-0.002,0.001-0.005,0.002-0.007,0.004c-0.022,0.013-0.044,0.028-0.066,0.042  c-0.036,0.022-0.073,0.044-0.108,0.067c-0.025,0.017-0.049,0.035-0.073,0.052c-0.033,0.023-0.067,0.047-0.099,0.071  c-0.025,0.019-0.049,0.04-0.073,0.059c-0.03,0.024-0.061,0.048-0.089,0.074c-0.024,0.021-0.047,0.044-0.071,0.066  c-0.027,0.025-0.055,0.051-0.082,0.077c-0.023,0.023-0.045,0.048-0.068,0.072c-0.025,0.027-0.051,0.053-0.075,0.08  c-0.022,0.025-0.043,0.052-0.064,0.078c-0.023,0.028-0.046,0.055-0.068,0.083c-0.021,0.027-0.039,0.055-0.059,0.082  c-0.021,0.029-0.042,0.057-0.062,0.087c-0.019,0.028-0.036,0.057-0.053,0.086c-0.019,0.03-0.038,0.059-0.056,0.09  C54.017,55.94,54.002,55.97,53.986,56c-0.017,0.031-0.034,0.062-0.05,0.093c-0.015,0.03-0.028,0.061-0.042,0.092  c-0.015,0.032-0.03,0.064-0.044,0.097c-0.013,0.031-0.024,0.062-0.035,0.093c-0.013,0.034-0.027,0.067-0.038,0.101  c-0.011,0.031-0.019,0.063-0.029,0.094c-0.011,0.035-0.023,0.07-0.032,0.105c-0.009,0.033-0.016,0.066-0.023,0.099  c-0.008,0.035-0.018,0.069-0.024,0.104c-0.007,0.037-0.013,0.074-0.019,0.111c-0.005,0.032-0.012,0.064-0.016,0.097  c-0.006,0.043-0.009,0.087-0.013,0.13c-0.002,0.027-0.006,0.054-0.008,0.081c-0.004,0.059-0.005,0.119-0.006,0.178  c0,0.012-0.001,0.023-0.001,0.035v0v0v20.943c0,1.147,0.614,2.207,1.61,2.776l7.958,4.553L49.99,93.327z M78.229,83.361V69.79  l11.828-6.76v13.564L78.229,83.361z"/>
</svg>